<svg xmlns="http://www.w3.org/2000/svg" xmlns:xlink="http://www.w3.org/1999/xlink" width="1125" zoomAndPan="magnify" viewBox="0 0 843.75 843.749997" height="1125" preserveAspectRatio="xMidYMid meet" version="1.0"><defs><clipPath id="31f815faab"><path d="M 119.085938 63.988281 L 725 63.988281 L 725 335.902344 L 119.085938 335.902344 Z M 119.085938 63.988281 " clip-rule="nonzero"/></clipPath><clipPath id="b5d344ae31"><path d="M 273.53125 335.382812 C 279.6875 252.761719 338.507812 195.640625 421.726562 195.640625 C 507.289062 195.640625 564.132812 250.1875 569.921875 335.382812 L 724.414062 335.382812 C 717.984375 162.832031 596.070312 63.988281 421.726562 63.988281 C 248.257812 63.988281 125.65625 164.992188 119.085938 335.382812 Z M 273.53125 335.382812 " clip-rule="nonzero"/></clipPath><clipPath id="0f34efea99"><path d="M 15 391.382812 L 828.503906 391.382812 L 828.503906 757 L 15 757 Z M 15 391.382812 " clip-rule="nonzero"/></clipPath><clipPath id="adf21de40a"><path d="M 620.921875 391.867188 C 612.652344 502.886719 533.609375 579.675781 421.765625 579.675781 C 306.742188 579.675781 230.371094 506.335938 222.609375 391.867188 L 15.039062 391.867188 C 23.679688 623.695312 187.5 756.542969 421.765625 756.542969 C 654.925781 756.542969 819.664062 620.847656 828.488281 391.867188 Z M 620.921875 391.867188 " clip-rule="nonzero"/></clipPath><clipPath id="a88c1b9db9"><path d="M 232 391.382812 L 611.820312 391.382812 L 611.820312 569.390625 L 232 569.390625 Z M 232 391.382812 " clip-rule="nonzero"/></clipPath><clipPath id="771227bdf5"><path d="M 422.039062 565.613281 C 314.1875 565.613281 242.042969 498.015625 232.714844 391.867188 L 232.394531 391.867188 C 240.390625 500.039062 312.996094 569.152344 422.039062 569.152344 C 528.097656 569.152344 603.183594 496.820312 611.683594 391.867188 L 611.316406 391.867188 C 601.390625 494.890625 526.855469 565.613281 422.039062 565.613281 " clip-rule="nonzero"/></clipPath><clipPath id="375f741896"><path d="M 245.175781 391.382812 L 599 391.382812 L 599 557.835938 L 245.175781 557.835938 Z M 245.175781 391.382812 " clip-rule="nonzero"/></clipPath><clipPath id="2f999a5558"><path d="M 422.039062 553.984375 C 321.496094 553.984375 254.269531 490.804688 245.582031 391.867188 L 245.261719 391.867188 C 252.703125 492.734375 320.390625 557.296875 422.039062 557.296875 C 520.929688 557.296875 590.914062 489.699219 598.863281 391.867188 L 598.542969 391.867188 C 589.304688 487.90625 519.824219 553.984375 422.085938 553.984375 " clip-rule="nonzero"/></clipPath></defs><g clip-path="url(#31f815faab)"><g clip-path="url(#b5d344ae31)"><path fill="#000000" d="M 119.085938 63.988281 L 724.378906 63.988281 L 724.378906 335.363281 L 119.085938 335.363281 Z M 119.085938 63.988281 " fill-opacity="1" fill-rule="nonzero"/></g></g><g clip-path="url(#0f34efea99)"><g clip-path="url(#adf21de40a)"><path fill="#000000" d="M -7.9375 368.890625 L 851.800781 368.890625 L 851.800781 779.511719 L -7.9375 779.511719 Z M -7.9375 368.890625 " fill-opacity="1" fill-rule="nonzero"/></g></g><g clip-path="url(#a88c1b9db9)"><g clip-path="url(#771227bdf5)"><path fill="#000000" d="M -7.9375 368.890625 L 851.800781 368.890625 L 851.800781 779.511719 L -7.9375 779.511719 Z M -7.9375 368.890625 " fill-opacity="1" fill-rule="nonzero"/></g></g><g clip-path="url(#375f741896)"><g clip-path="url(#2f999a5558)"><path fill="#000000" d="M -7.9375 368.890625 L 851.800781 368.890625 L 851.800781 779.511719 L -7.9375 779.511719 Z M -7.9375 368.890625 " fill-opacity="1" fill-rule="nonzero"/></g></g></svg>